# xmcd CD database file
#
# Track frame offsets:
#	150
#	24685
#	45480
#	67941
#	85169
#	104609
#	127648
#	148101
#	172570
#	195636
#
# Disc length: 2919 seconds
#
# Revision: 0
# Processed by: cddbd v1.5.2PL0 Copyright (c) Steve Scherf et al.
# Submitted via: CDex 1.51
#
DISCID=780b650a
DTITLE=Boney James - Send One Your Love
DYEAR=2009
DGENRE=Jazz
TTITLE0=Wanna Show U Sumthin'
TTITLE1=Send One Your Love
TTITLE2=Stop, Look, Listen (To Your Heart)
TTITLE3=Touch
TTITLE4=Don't Let Me Be Lonely Tonight
TTITLE5=Hold ON Tight
TTITLE6=I'm Gonna Love You Just A Little Bit More Baby
TTITLE7=City Of Light
TTITLE8=Butter
TTITLE9=I'll Be Good To You
EXTD=YEAR: 2009
EXTT0=
EXTT1=
EXTT2=
EXTT3=
EXTT4=
EXTT5=
EXTT6=
EXTT7=
EXTT8=
EXTT9=
PLAYORDER=
